<mxfile host="app.diagrams.net" modified="2024-05-07T08:59:02.911Z" agent="Mozilla/5.0 (Macintosh; Intel Mac OS X 10_15_7) AppleWebKit/537.36 (KHTML, like Gecko) Chrome/124.0.0.0 Safari/537.36" version="24.3.1" etag="l1h7r57MdJSLgn21WrcD" type="github">
  <diagram name="第 1 页" id="70hj8v1VQVyg1i2EYkiq">
    <mxGraphModel>
      <root>
        <mxCell id="0" />
        <mxCell id="1" parent="0" />
      </root>
    </mxGraphModel>
  </diagram>
</mxfile>
